<svg width="840" height="840" viewBox="0 0 840 840" fill="none" xmlns="http://www.w3.org/2000/svg">
<path d="M261.744 716.454C254.241 712.123 246.928 707.492 239.805 702.561C232.682 697.631 225.772 692.418 219.075 686.922C212.378 681.426 205.917 675.665 199.692 669.641C193.467 663.616 187.498 657.346 181.787 650.833C176.075 644.32 170.638 637.584 165.478 630.625C160.317 623.667 155.45 616.509 150.875 609.152C146.3 601.796 142.034 594.264 138.076 586.558C134.118 578.852 130.481 570.997 127.166 562.993C123.851 554.989 120.868 546.863 118.218 538.615C115.568 530.367 113.26 522.025 111.293 513.588C109.326 505.151 107.707 496.648 106.436 488.078C105.165 479.509 104.246 470.902 103.68 462.257C103.113 453.613 102.901 444.959 103.043 436.297C103.185 427.635 103.68 418.994 104.529 410.372C105.379 401.751 106.579 393.178 108.13 384.655C109.681 376.132 111.577 367.686 113.819 359.318C116.062 350.95 118.642 342.688 121.561 334.531C124.479 326.374 127.726 318.35 131.302 310.459C134.877 302.568 138.769 294.837 142.978 287.265C147.186 279.692 151.697 272.304 156.51 265.101C161.323 257.898 166.422 250.904 171.808 244.118C177.194 237.333 182.848 230.778 188.77 224.455C194.692 218.132 200.863 212.062 207.282 206.244C213.701 200.427 220.347 194.881 227.22 189.607C234.093 184.334 241.17 179.349 248.451 174.655C255.732 169.961 263.193 165.572 270.833 161.488C278.474 157.404 286.268 153.639 294.216 150.194C302.165 146.748 310.241 143.633 318.444 140.848C326.648 138.064 334.951 135.619 343.355 133.514C351.759 131.409 360.234 129.651 368.782 128.24C377.329 126.829 385.92 125.77 394.554 125.062C403.189 124.354 411.837 124 420.501 124C429.164 124 437.813 124.355 446.447 125.063C455.081 125.771 463.672 126.83 472.219 128.242C480.767 129.653 489.242 131.411 497.646 133.516C506.049 135.622 514.353 138.066 522.556 140.851C530.76 143.636 538.836 146.751 546.784 150.197C554.732 153.643 562.527 157.408 570.167 161.492C577.807 165.576 585.268 169.965 592.548 174.66C599.829 179.355 606.906 184.339 613.779 189.612C620.652 194.887 627.298 200.433 633.717 206.25C640.136 212.068 646.306 218.139 652.228 224.462C658.15 230.785 663.804 237.339 669.19 244.125C674.575 250.911 679.674 257.906 684.487 265.109C689.3 272.312 693.811 279.7 698.019 287.273C702.227 294.845 706.119 302.577 709.694 310.468C713.269 318.359 716.516 326.383 719.434 334.54C722.353 342.697 724.933 350.959 727.175 359.327C729.417 367.695 731.314 376.141 732.864 384.664C734.415 393.188 735.615 401.76 736.464 410.381C737.313 419.003 737.808 427.645 737.95 436.307C738.092 444.969 737.879 453.622 737.312 462.266C736.745 470.911 735.826 479.518 734.555 488.088C733.284 496.657 731.665 505.16 729.697 513.597C727.73 522.034 725.421 530.376 722.771 538.624C720.121 546.872 717.138 554.998 713.823 563.001C710.507 571.005 706.87 578.86 702.912 586.566C698.954 594.272 694.687 601.803 690.112 609.16C685.537 616.517 680.669 623.674 675.509 630.633C670.348 637.591 664.911 644.326 659.199 650.839C653.487 657.353 647.518 663.622 641.293 669.647C635.068 675.672 628.607 681.431 621.91 686.927C615.213 692.423 608.303 697.636 601.179 702.566C594.056 707.497 586.743 712.127 579.24 716.459" stroke="#1F567D" stroke-width="152.779"/>
<path d="M352.344 502.779C352.344 515.776 358.505 526.409 370.826 534.679C383.316 542.95 399.519 547.085 419.435 547.085C438.507 547.085 454.542 542.443 467.538 533.16C480.703 523.877 487.286 512.4 487.286 498.729H534.123C534.123 524.89 523.321 545.819 501.717 561.516C480.281 577.044 452.854 584.808 419.435 584.808C385.003 584.808 357.323 577.381 336.394 562.528C315.465 547.507 305 527.59 305 502.779C305 471.386 322.301 450.119 356.901 438.98C342.048 432.903 330.487 424.717 322.216 414.422C313.946 404.126 309.811 392.818 309.811 380.496C309.811 355.517 319.516 336.022 338.926 322.013C358.505 308.004 385.341 301 419.435 301C450.829 301 476.99 308.595 497.919 323.786C519.017 338.807 529.566 358.302 529.566 382.269H482.729C482.729 370.454 476.652 360.327 464.5 351.888C452.516 343.28 437.495 338.976 419.435 338.976C400.531 338.976 385.341 342.858 373.864 350.622C362.555 358.217 356.901 368.26 356.901 380.75C356.901 407.755 377.493 421.257 418.676 421.257H468.298V458.727H411.587C372.092 459.74 352.344 474.424 352.344 502.779Z" fill="white"/>
</svg>
