<svg width="3750" height="792" viewBox="0 0 3750 792" fill="none" xmlns="http://www.w3.org/2000/svg">
<g opacity="0.99">
<g opacity="0.99">
<g opacity="0.99">
<g opacity="0.99">
<mask id="mask0_2_2" style="mask-type:luminance" maskUnits="userSpaceOnUse" x="0" y="0" width="848" height="792">
<g opacity="0.99">
<path d="M0 0H847.222V791.667H0V0Z" fill="white"/>
</g>
</mask>
<g mask="url(#mask0_2_2)">
<path d="M248.541 706.58C241.038 702.249 233.725 697.618 226.602 692.687C219.479 687.757 212.569 682.544 205.872 677.048C199.175 671.552 192.714 665.791 186.489 659.767C180.264 653.742 174.295 647.472 168.584 640.959C162.872 634.446 157.435 627.71 152.275 620.751C147.114 613.793 142.247 606.635 137.672 599.278C133.097 591.922 128.831 584.39 124.873 576.684C120.915 568.978 117.278 561.123 113.963 553.119C110.648 545.115 107.665 536.989 105.015 528.741C102.365 520.493 100.057 512.151 98.0896 503.714C96.1226 495.277 94.5035 486.774 93.2325 478.204C91.9615 469.635 91.0427 461.028 90.4762 452.383C89.9097 443.739 89.6974 435.085 89.8393 426.423C89.9812 417.761 90.4767 409.12 91.326 400.498C92.1753 391.877 93.3754 383.304 94.9264 374.781C96.4774 366.258 98.374 357.812 100.616 349.444C102.859 341.076 105.439 332.814 108.358 324.657C111.276 316.5 114.523 308.476 118.099 300.585C121.674 292.694 125.566 284.963 129.775 277.391C133.983 269.818 138.494 262.43 143.307 255.227C148.12 248.024 153.219 241.03 158.605 234.244C163.991 227.459 169.645 220.904 175.567 214.581C181.489 208.258 187.66 202.188 194.079 196.37C200.498 190.553 207.144 185.007 214.017 179.733C220.89 174.46 227.967 169.475 235.248 164.781C242.529 160.087 249.99 155.698 257.63 151.614C265.271 147.53 273.065 143.765 281.013 140.32C288.962 136.874 297.038 133.759 305.241 130.974C313.445 128.19 321.748 125.745 330.152 123.64C338.556 121.535 347.031 119.777 355.579 118.366C364.126 116.955 372.717 115.896 381.351 115.188C389.986 114.48 398.634 114.126 407.298 114.126C415.961 114.126 424.61 114.481 433.244 115.189C441.878 115.897 450.469 116.956 459.016 118.368C467.564 119.779 476.039 121.537 484.443 123.642C492.846 125.748 501.15 128.192 509.353 130.977C517.557 133.762 525.633 136.877 533.581 140.323C541.529 143.769 549.324 147.534 556.964 151.618C564.604 155.702 572.065 160.091 579.345 164.786C586.626 169.481 593.703 174.465 600.576 179.738C607.449 185.013 614.095 190.559 620.514 196.376C626.933 202.194 633.103 208.265 639.025 214.588C644.947 220.911 650.601 227.465 655.987 234.251C661.372 241.037 666.471 248.032 671.284 255.235C676.097 262.438 680.608 269.826 684.816 277.399C689.024 284.971 692.916 292.703 696.491 300.594C700.066 308.485 703.313 316.509 706.231 324.666C709.15 332.823 711.73 341.085 713.972 349.453C716.214 357.821 718.111 366.267 719.661 374.79C721.212 383.314 722.412 391.886 723.261 400.507C724.11 409.129 724.605 417.771 724.747 426.433C724.889 435.095 724.676 443.748 724.109 452.392C723.542 461.037 722.623 469.644 721.352 478.214C720.081 486.783 718.462 495.286 716.494 503.723C714.527 512.16 712.218 520.502 709.568 528.75C706.918 536.998 703.935 545.124 700.62 553.127C697.304 561.131 693.667 568.986 689.709 576.692C685.751 584.398 681.484 591.929 676.909 599.286C672.334 606.643 667.466 613.8 662.306 620.759C657.145 627.717 651.708 634.452 645.996 640.965C640.284 647.479 634.315 653.748 628.09 659.773C621.865 665.798 615.404 671.557 608.707 677.053C602.01 682.549 595.1 687.762 587.976 692.692C580.853 697.623 573.54 702.253 566.037 706.585" stroke="#1F567D" stroke-width="152.779"/>
</g>
</g>
<mask id="mask1_2_2" style="mask-type:luminance" maskUnits="userSpaceOnUse" x="855" y="443" width="2895" height="348">
<g opacity="0.99">
<path d="M855.956 443.352H3750V790.574H855.956V443.352Z" fill="white"/>
</g>
</mask>
<g mask="url(#mask1_2_2)">
<path d="M973.349 509.577C942.182 509.577 923.104 530.166 923.104 563.599C923.104 597.221 942.182 617.621 973.538 617.621C1004.52 617.621 1023.97 597.032 1023.97 564.354C1023.97 529.788 1005.27 509.577 973.349 509.577ZM973.538 530.921C988.082 530.921 997.527 543.954 997.527 563.977C997.527 583.054 987.704 596.277 973.538 596.277C959.182 596.277 949.549 583.054 949.549 563.599C949.549 544.143 959.182 530.921 973.538 530.921Z" fill="black"/>
<path d="M1042.72 654.455H1058.59V602.888C1066.9 613.088 1076.16 617.621 1089 617.621C1114.5 617.621 1131.31 597.033 1131.31 565.488C1131.31 532.243 1115.07 511.466 1088.81 511.466C1075.4 511.466 1064.64 517.51 1057.27 529.221V514.299H1042.72V654.455ZM1086.17 526.199C1103.55 526.199 1114.88 541.499 1114.88 565.11C1114.88 587.588 1103.36 602.888 1086.17 602.888C1069.55 602.888 1058.59 587.777 1058.59 564.543C1058.59 541.31 1069.55 526.199 1086.17 526.199Z" fill="black"/>
<path d="M1231.91 569.077C1231.91 533.188 1218.5 511.466 1187.9 511.466C1160.33 511.466 1142.57 532.621 1142.57 565.11C1142.57 597.599 1159.76 617.621 1187.53 617.621C1210.19 617.621 1225.87 604.777 1229.84 583.244H1213.97C1209.63 596.277 1200.75 603.077 1188.09 603.077C1169.77 603.077 1159.38 589.288 1159 569.077H1231.91ZM1159.38 556.232C1160.7 537.91 1171.85 526.01 1187.71 526.01C1203.96 526.01 1215.1 539.232 1215.1 556.232H1159.38Z" fill="black"/>
<path d="M1248.95 514.299V613.277H1264.82V558.688C1264.82 538.477 1275.4 525.255 1291.64 525.255C1304.11 525.255 1312.04 532.81 1312.04 544.71V613.277H1327.72V538.477C1327.72 522.044 1315.44 511.466 1296.36 511.466C1281.63 511.466 1272.19 517.132 1263.5 530.921V514.299H1248.95Z" fill="black"/>
<path d="M1441.07 509.577C1411.8 509.577 1393.85 530.732 1393.85 564.921C1393.85 597.599 1411.61 617.621 1440.51 617.621C1463.36 617.621 1481.87 604.588 1487.73 584.565H1461.66C1458.45 592.688 1451.08 597.41 1441.45 597.41C1423.7 597.41 1420.86 584.377 1420.3 570.588H1488.67C1488.86 568.321 1488.86 567.377 1488.86 566.054C1488.86 520.91 1461.47 509.577 1441.07 509.577ZM1461.28 553.021H1420.67C1422.37 537.532 1428.98 529.788 1440.7 529.788C1452.97 529.788 1460.15 538.099 1461.28 553.021Z" fill="black"/>
<path d="M1507.94 514.299V613.277H1523.8V558.688C1523.8 538.477 1534.38 525.255 1550.63 525.255C1563.09 525.255 1571.03 532.81 1571.03 544.71V613.277H1586.7V538.477C1586.7 522.044 1574.43 511.466 1555.35 511.466C1540.61 511.466 1531.17 517.132 1522.48 530.921V514.299H1507.94Z" fill="black"/>
<path d="M1693.07 569.077C1693.07 533.188 1679.66 511.466 1649.06 511.466C1621.48 511.466 1603.72 532.621 1603.72 565.11C1603.72 597.599 1620.91 617.621 1648.68 617.621C1671.35 617.621 1687.02 604.777 1690.99 583.244H1675.12C1670.78 596.277 1661.9 603.077 1649.25 603.077C1630.92 603.077 1620.54 589.288 1620.16 569.077H1693.07ZM1620.54 556.232C1621.86 537.91 1633 526.01 1648.87 526.01C1665.11 526.01 1676.26 539.232 1676.26 556.232H1620.54Z" fill="black"/>
<path d="M1757.71 528.088V512.032C1755.06 511.654 1753.74 511.466 1751.66 511.466C1741.46 511.466 1733.72 517.51 1724.65 532.243V514.299H1710.11V613.277H1725.97V561.899C1725.97 534.132 1738.63 528.466 1757.71 528.088Z" fill="black"/>
<path d="M1807.96 617.621C1820.42 617.621 1829.11 612.333 1837.99 599.866V604.966C1837.99 627.632 1832.7 641.232 1810.41 641.232C1805.5 641.232 1789.07 640.666 1786.42 624.61H1770.37C1772.07 643.31 1786.61 654.454 1809.85 654.454C1847.43 654.454 1854.05 631.41 1854.05 597.032V514.299H1837.61L1839.5 528.654C1831.57 516.943 1821.94 511.466 1809.28 511.466C1784.16 511.466 1767.16 533.377 1767.16 565.488C1767.16 597.788 1785.48 617.621 1807.96 617.621ZM1810.98 526.01C1827.98 526.01 1837.99 540.366 1837.99 565.11C1837.99 588.721 1827.79 603.077 1811.17 603.077C1793.98 603.077 1783.59 588.532 1783.59 564.544C1783.59 540.744 1794.17 526.01 1810.98 526.01Z" fill="black"/>
<path d="M1936.93 514.299L1909.54 591.366L1884.23 514.299H1867.42L1900.85 613.655L1894.8 629.332C1892.16 636.321 1888.76 638.966 1882.15 638.966C1879.88 638.966 1877.24 638.588 1873.84 637.832V651.999C1877.05 653.699 1880.26 654.454 1884.42 654.454C1895.18 654.454 1904.44 648.599 1909.92 634.054L1953.93 514.299H1936.93Z" fill="black"/>
<path d="M2015.41 511.277V613.277H2041.86V552.077C2041.86 539.61 2048.66 532.055 2059.99 532.055C2068.87 532.055 2074.35 537.155 2074.35 545.277V613.277H2100.79V552.077C2100.79 539.61 2107.59 532.055 2118.92 532.055C2127.8 532.055 2133.28 537.155 2133.28 545.277V613.277H2159.73V541.121C2159.73 521.288 2147.64 509.577 2127.24 509.577C2114.39 509.577 2105.33 514.11 2097.39 524.688C2092.48 515.054 2082.28 509.577 2069.63 509.577C2057.91 509.577 2050.36 513.543 2041.67 523.932V511.277H2015.41Z" fill="black"/>
<path d="M2229.9 509.577C2198.74 509.577 2179.66 530.166 2179.66 563.599C2179.66 597.221 2198.74 617.621 2230.09 617.621C2261.07 617.621 2280.52 597.032 2280.52 564.354C2280.52 529.788 2261.82 509.577 2229.9 509.577ZM2230.09 530.921C2244.64 530.921 2254.08 543.954 2254.08 563.977C2254.08 583.054 2244.26 596.277 2230.09 596.277C2215.74 596.277 2206.1 583.054 2206.1 563.599C2206.1 544.143 2215.74 530.921 2230.09 530.921Z" fill="black"/>
<path d="M2382.2 475.577H2366.52V526.765C2359.91 516.754 2349.33 511.466 2336.11 511.466C2310.42 511.466 2293.61 532.054 2293.61 563.599C2293.61 597.032 2310.04 617.621 2336.68 617.621C2350.28 617.621 2359.72 612.521 2368.22 600.243V613.277H2382.2V475.577ZM2338.76 526.199C2355.76 526.199 2366.52 541.31 2366.52 564.921C2366.52 587.777 2355.57 602.888 2338.94 602.888C2321.57 602.888 2310.04 587.588 2310.04 564.543C2310.04 541.499 2321.57 526.199 2338.76 526.199Z" fill="black"/>
<path d="M2488.47 569.077C2488.47 533.188 2475.06 511.466 2444.46 511.466C2416.88 511.466 2399.12 532.621 2399.12 565.11C2399.12 597.599 2416.31 617.621 2444.08 617.621C2466.75 617.621 2482.42 604.777 2486.39 583.244H2470.52C2466.18 596.277 2457.3 603.077 2444.65 603.077C2426.32 603.077 2415.93 589.288 2415.56 569.077H2488.47ZM2415.93 556.232C2417.26 537.91 2428.4 526.01 2444.27 526.01C2460.51 526.01 2471.66 539.232 2471.66 556.232H2415.93Z" fill="black"/>
<path d="M2521.37 475.577H2505.51V613.277H2521.37V475.577Z" fill="black"/>
<path d="M2561.95 475.577H2546.09V613.277H2561.95V475.577Z" fill="black"/>
<path d="M2603.67 514.299H2587.99V613.277H2603.67V514.299ZM2603.67 475.577H2587.8V495.41H2603.67V475.577Z" fill="black"/>
<path d="M2628.73 514.299V613.277H2644.59V558.688C2644.59 538.477 2655.17 525.255 2671.42 525.255C2683.88 525.255 2691.82 532.81 2691.82 544.71V613.277H2707.49V538.477C2707.49 522.044 2695.22 511.466 2676.14 511.466C2661.4 511.466 2651.96 517.132 2643.27 530.921V514.299H2628.73Z" fill="black"/>
<path d="M2765.31 617.621C2777.78 617.621 2786.47 612.333 2795.35 599.866V604.966C2795.35 627.632 2790.06 641.232 2767.77 641.232C2762.86 641.232 2746.42 640.666 2743.78 624.61H2727.72C2729.42 643.31 2743.97 654.454 2767.2 654.454C2804.79 654.454 2811.4 631.41 2811.4 597.032V514.299H2794.97L2796.86 528.654C2788.92 516.943 2779.29 511.466 2766.64 511.466C2741.51 511.466 2724.51 533.377 2724.51 565.488C2724.51 597.788 2742.84 617.621 2765.31 617.621ZM2768.34 526.01C2785.34 526.01 2795.35 540.366 2795.35 565.11C2795.35 588.721 2785.15 603.077 2768.53 603.077C2751.34 603.077 2740.95 588.532 2740.95 564.544C2740.95 540.744 2751.53 526.01 2768.34 526.01Z" fill="black"/>
<path d="M2929.23 513.355H2913.55V503.343C2913.55 498.055 2915.82 495.41 2920.73 495.41C2923 495.41 2926.02 495.599 2928.28 495.977V476.143C2923.37 475.765 2916.76 475.577 2913.17 475.577C2895.61 475.577 2887.11 483.888 2887.11 501.077V513.354H2872.75V530.921H2887.11V613.277H2913.55V530.921H2929.23V513.355Z" fill="black"/>
<path d="M2993.97 528.088V512.032C2991.33 511.654 2990 511.466 2987.93 511.466C2977.73 511.466 2969.98 517.51 2960.91 532.243V514.299H2946.37V613.277H2962.24V561.899C2962.24 534.132 2974.89 528.466 2993.97 528.088Z" fill="black"/>
<path d="M3007.77 543.577H3023.63C3024.95 531.488 3032.13 526.01 3046.87 526.01C3061.03 526.01 3068.97 531.299 3068.97 540.744V544.899C3068.97 551.51 3065 554.344 3052.53 555.855C3023.63 559.632 3003.42 561.899 3003.42 588.343C3003.42 606.288 3015.89 617.621 3035.91 617.621C3048.38 617.621 3058.39 613.277 3069.53 603.077C3070.67 613.088 3075.58 617.621 3085.78 617.621C3088.99 617.621 3091.44 617.243 3096.54 615.921V604.021C3094.84 604.399 3094.09 604.399 3093.14 604.399C3087.67 604.399 3084.64 601.565 3084.64 596.654V538.476C3084.64 520.91 3071.8 511.465 3047.43 511.465C3029.68 511.465 3008.71 516.755 3007.77 543.577ZM3039.31 603.832C3027.03 603.832 3019.85 597.977 3019.85 587.966C3019.85 566.244 3052.91 571.721 3068.97 564.355V582.11C3068.97 591.555 3058.01 603.832 3039.31 603.832Z" fill="black"/>
<path d="M3111.65 514.299V613.277H3127.52V551.132C3127.52 536.777 3137.9 525.255 3150.75 525.255C3162.46 525.255 3169.07 532.432 3169.07 545.088V613.277H3184.94V551.132C3184.94 536.777 3195.33 525.255 3208.17 525.255C3219.69 525.255 3226.49 532.621 3226.49 545.088V613.277H3242.36V539.044C3242.36 521.288 3232.16 511.466 3213.65 511.466C3200.43 511.466 3192.49 515.432 3183.24 526.577C3177.38 515.999 3169.45 511.466 3156.6 511.466C3143.38 511.466 3134.69 516.377 3126.19 528.277V514.299H3111.65Z" fill="black"/>
<path d="M3348.8 569.077C3348.8 533.188 3335.39 511.466 3304.79 511.466C3277.21 511.466 3259.45 532.621 3259.45 565.11C3259.45 597.599 3276.64 617.621 3304.41 617.621C3327.08 617.621 3342.75 604.777 3346.72 583.244H3330.85C3326.51 596.277 3317.63 603.077 3304.98 603.077C3286.65 603.077 3276.26 589.288 3275.89 569.077H3348.8ZM3276.27 556.232C3277.59 537.91 3288.73 526.01 3304.6 526.01C3320.84 526.01 3331.99 539.232 3331.99 556.232H3276.27Z" fill="black"/>
<path d="M3459.9 613.277L3488.99 514.299H3471.24L3451.59 591.366L3432.14 514.299H3412.87L3393.98 591.366L3373.77 514.299H3356.39L3385.1 613.277H3402.86L3421.94 535.643L3441.96 613.277H3459.9Z" fill="black"/>
<path d="M3541.25 511.466C3513.48 511.466 3496.67 531.299 3496.67 564.543C3496.67 597.788 3513.29 617.621 3541.44 617.621C3569.21 617.621 3586.21 597.788 3586.21 565.299C3586.21 531.11 3569.77 511.466 3541.25 511.466ZM3541.44 526.01C3559.19 526.01 3569.77 540.555 3569.77 565.11C3569.77 588.344 3558.82 603.077 3541.44 603.077C3523.87 603.077 3513.11 588.532 3513.11 564.544C3513.11 540.744 3523.87 526.01 3541.44 526.01Z" fill="black"/>
<path d="M3650.65 528.088V512.032C3648.01 511.654 3646.69 511.466 3644.61 511.466C3634.41 511.466 3626.67 517.51 3617.6 532.243V514.299H3603.05V613.277H3618.92V561.899C3618.92 534.132 3631.58 528.466 3650.65 528.088Z" fill="black"/>
<path d="M3681.45 475.577H3665.77V613.277H3681.45V574.743L3696.75 559.632L3730.18 613.277H3749.64L3709.22 548.488L3743.59 514.299H3723.38L3681.45 556.232V475.577Z" fill="black"/>
</g>
<g opacity="0.99">
<mask id="mask2_2_2" style="mask-type:luminance" maskUnits="userSpaceOnUse" x="0" y="0" width="3750" height="792">
<g opacity="0.99">
<path d="M0 0H3750V791.667H0V0Z" fill="white"/>
</g>
</mask>
<g mask="url(#mask2_2_2)">
<path d="M2399.42 118.012H2369.02V384.07H2399.42V408.257H2339.42V93.825H2399.42V118.012Z" fill="#B3B3B3"/>
<path d="M2441.7 110.934V164.38H2415.63V110.934H2441.7Z" fill="#B3B3B3"/>
<path d="M2500.24 310.236C2500.24 318.404 2504.11 325.087 2511.86 330.285C2519.71 335.483 2529.89 338.083 2542.41 338.083C2554.4 338.083 2564.47 335.165 2572.64 329.331C2580.92 323.496 2585.05 316.282 2585.05 307.69H2614.49C2614.49 324.133 2607.7 337.287 2594.12 347.153C2580.65 356.912 2563.41 361.792 2542.41 361.792C2520.77 361.792 2503.37 357.125 2490.22 347.789C2477.06 338.348 2470.48 325.83 2470.48 310.236C2470.48 290.504 2481.36 277.138 2503.11 270.136C2493.77 266.317 2486.5 261.172 2481.3 254.701C2476.11 248.23 2473.51 241.122 2473.51 233.378C2473.51 217.678 2479.61 205.425 2491.81 196.62C2504.11 187.815 2520.98 183.413 2542.41 183.413C2562.14 183.413 2578.58 188.186 2591.74 197.734C2605 207.175 2611.63 219.428 2611.63 234.492H2582.19C2582.19 227.066 2578.37 220.701 2570.73 215.397C2563.2 209.987 2553.76 207.281 2542.41 207.281C2530.53 207.281 2520.98 209.721 2513.77 214.601C2506.66 219.375 2503.11 225.687 2503.11 233.537C2503.11 250.511 2516.05 258.997 2541.93 258.997H2573.12V282.548H2537.48C2512.65 283.184 2500.24 292.414 2500.24 310.236Z" fill="#B3B3B3"/>
<path d="M2700.73 278.888L2682.27 298.142V358.61H2652.83V114.193H2682.27V262.02L2698.02 243.085L2751.65 186.436H2787.45L2720.46 258.361L2795.25 358.61H2760.72L2700.73 278.888Z" fill="#B3B3B3"/>
<path d="M2918.08 312.941C2918.08 304.984 2915.06 298.832 2909.01 294.482C2903.07 290.027 2892.62 286.208 2877.66 283.025C2862.81 279.843 2850.98 276.024 2842.18 271.568C2833.48 267.113 2827.01 261.808 2822.77 255.656C2818.63 249.503 2816.56 242.183 2816.56 233.696C2816.56 219.587 2822.5 207.653 2834.38 197.893C2846.37 188.133 2861.65 183.254 2880.21 183.254C2899.73 183.254 2915.54 188.292 2927.63 198.37C2939.83 208.448 2945.93 221.338 2945.93 237.038H2916.33C2916.33 228.976 2912.88 222.027 2905.99 216.192C2899.2 210.358 2890.61 207.441 2880.21 207.441C2869.5 207.441 2861.12 209.774 2855.07 214.442C2849.02 219.11 2846 225.21 2846 232.742C2846 239.849 2848.81 245.206 2854.43 248.813C2860.05 252.42 2870.19 255.868 2884.83 259.156C2899.57 262.445 2911.51 266.37 2920.63 270.932C2929.75 275.493 2936.49 281.01 2940.84 287.481C2945.29 293.846 2947.52 301.643 2947.52 310.872C2947.52 326.254 2941.37 338.613 2929.06 347.948C2916.76 357.178 2900.79 361.792 2881.17 361.792C2867.37 361.792 2855.17 359.352 2844.57 354.472C2833.96 349.593 2825.63 342.803 2819.58 334.104C2813.64 325.299 2810.67 315.805 2810.67 305.621H2840.11C2840.64 315.487 2844.57 323.337 2851.89 329.172C2859.31 334.9 2869.07 337.764 2881.17 337.764C2892.3 337.764 2901.22 335.537 2907.9 331.081C2914.69 326.519 2918.08 320.473 2918.08 312.941Z" fill="#B3B3B3"/>
<path d="M3044.89 183.094C3068.23 183.094 3087.06 191.051 3101.38 206.963C3115.71 222.876 3122.87 244.039 3122.87 270.454V276.183C3122.87 291.989 3119.58 306.47 3113 319.624C3106.42 332.778 3097.41 343.121 3085.95 350.653C3074.49 358.079 3062.29 361.739 3049.35 361.633C3027.28 361.633 3010.05 354.897 2997.63 341.424C2985.33 327.951 2979.18 308.856 2979.18 284.139V265.68H3093.27C3092.53 247.858 3087.86 233.643 3079.27 223.035C3070.78 212.426 3059.32 207.122 3044.89 207.122C3025.16 207.122 3008.77 212.851 2995.72 224.308L2984.11 204.417C2998.96 190.202 3019.22 183.094 3044.89 183.094ZM3049.35 337.605C3059.75 337.605 3068.92 333.256 3076.88 324.557C3084.94 315.858 3090.09 304.242 3092.31 289.708H3008.77V293.846C3008.77 307.106 3012.38 317.714 3019.59 325.671C3026.91 333.627 3036.83 337.605 3049.35 337.605Z" fill="#B3B3B3"/>
<path d="M3158.18 343.175C3158.18 338.083 3159.67 333.839 3162.64 330.445C3165.71 327.05 3170.27 325.353 3176.32 325.353C3182.37 325.353 3186.93 327.05 3190.01 330.445C3193.19 333.839 3194.78 338.083 3194.78 343.175C3194.78 348.054 3193.19 352.139 3190.01 355.427C3186.93 358.716 3182.37 360.36 3176.32 360.36C3170.27 360.36 3165.71 358.716 3162.64 355.427C3159.67 352.139 3158.18 348.054 3158.18 343.175Z" fill="#B3B3B3"/>
<path d="M3388.75 274.432C3388.75 300.635 3382.75 321.746 3370.77 337.764C3358.78 353.783 3342.55 361.792 3322.07 361.792C3301.18 361.792 3284.73 355.162 3272.75 341.902V424.806H3243.31V186.436H3270.2L3271.63 205.531C3283.62 190.679 3300.27 183.254 3321.6 183.254C3342.28 183.254 3358.62 191.051 3370.61 206.645C3382.7 222.239 3388.75 243.933 3388.75 271.727V274.432ZM3359.31 271.091C3359.31 251.677 3355.17 236.348 3346.9 225.103C3338.62 213.859 3327.27 208.236 3312.85 208.236C3295.02 208.236 3281.66 216.139 3272.75 231.946V314.214C3281.55 329.914 3295.02 337.764 3313.16 337.764C3327.27 337.764 3338.46 332.195 3346.74 321.056C3355.12 309.811 3359.31 293.156 3359.31 271.091Z" fill="#B3B3B3"/>
<path d="M3532.43 358.61C3530.73 355.215 3529.35 349.168 3528.29 340.469C3514.6 354.685 3498.27 361.792 3479.28 361.792C3462.31 361.792 3448.36 357.018 3437.43 347.471C3426.61 337.817 3421.2 325.618 3421.2 310.872C3421.2 292.944 3427.99 279.047 3441.57 269.181C3455.25 259.209 3474.45 254.223 3499.17 254.223H3527.81V240.698C3527.81 230.408 3524.74 222.239 3518.58 216.192C3512.43 210.04 3503.36 206.963 3491.37 206.963C3480.87 206.963 3472.07 209.615 3464.96 214.919C3457.85 220.224 3454.3 226.642 3454.3 234.174H3424.7C3424.7 225.581 3427.72 217.306 3433.77 209.35C3439.92 201.288 3448.2 194.923 3458.59 190.255C3469.09 185.587 3480.61 183.254 3493.12 183.254C3512.96 183.254 3528.5 188.239 3539.75 198.211C3550.99 208.077 3556.83 221.709 3557.25 239.107V318.351C3557.25 334.157 3559.27 346.728 3563.3 356.064V358.61H3532.43ZM3483.58 336.173C3492.8 336.173 3501.56 333.786 3509.83 329.012C3518.11 324.239 3524.1 318.033 3527.81 310.395V275.069H3504.74C3468.67 275.069 3450.64 285.624 3450.64 306.735C3450.64 315.964 3453.71 323.178 3459.87 328.376C3466.02 333.574 3473.92 336.173 3483.58 336.173Z" fill="#B3B3B3"/>
<path d="M3673.66 183.933V200.879L3647.59 206.745V336.123L3673.66 341.663V358.61H3592.84V341.663L3618.91 336.123V206.745L3592.84 200.879V183.933H3673.66Z" fill="#B3B3B3"/>
<path d="M3686.82 93.825H3746.97V408.257H3686.82V384.07H3717.53V118.012H3686.82V93.825Z" fill="#B3B3B3"/>
<path d="M1072.68 251.318H955.152V347.424H1091.67V376.665H919.392V105.482H1089.81V134.91H955.152V222.076H1072.68V251.318Z" fill="black"/>
<path d="M1245.69 248.71L1290.39 175.14H1330.62L1264.68 274.785L1332.67 376.665H1292.81L1246.24 301.233L1199.68 376.665H1159.64L1227.62 274.785L1161.69 175.14H1201.54L1245.69 248.71Z" fill="black"/>
<path d="M1498.04 380.39C1470.72 380.39 1448.5 371.45 1431.36 353.57C1414.23 335.566 1405.66 311.539 1405.66 281.49V275.158C1405.66 255.167 1409.45 237.349 1417.02 221.704C1424.72 205.934 1435.4 193.642 1449.06 184.826C1462.84 175.885 1477.74 171.415 1493.76 171.415C1519.96 171.415 1540.32 180.045 1554.85 197.304C1569.37 214.564 1576.64 239.273 1576.64 271.433V285.774H1440.12C1440.61 305.641 1446.39 321.721 1457.44 334.014C1468.61 346.182 1482.77 352.266 1499.9 352.266C1512.07 352.266 1522.38 349.783 1530.82 344.816C1539.26 339.849 1546.65 333.269 1552.98 325.073L1574.03 341.464C1557.14 367.415 1531.81 380.39 1498.04 380.39ZM1493.76 199.726C1479.85 199.726 1468.18 204.817 1458.74 214.998C1449.3 225.056 1443.47 239.211 1441.23 257.464H1542.18V254.856C1541.19 237.349 1536.47 223.814 1528.03 214.253C1519.58 204.568 1508.16 199.726 1493.76 199.726Z" fill="black"/>
<path d="M1761.2 206.058C1755.98 205.189 1750.33 204.755 1744.25 204.755C1721.65 204.755 1706.31 214.378 1698.24 233.624V376.665H1663.79V175.14H1697.31L1697.87 198.422C1709.17 180.418 1725.19 171.415 1745.92 171.415C1752.63 171.415 1757.72 172.285 1761.2 174.023V206.058Z" fill="black"/>
<path d="M1881.31 270.502V376.665H1845.55V105.482H1945.57C1975.25 105.482 1998.47 113.056 2015.23 128.205C2032.12 143.353 2040.56 163.407 2040.56 188.364C2040.56 214.688 2032.3 234.989 2015.79 249.269C1999.4 263.424 1975.87 270.502 1945.2 270.502H1881.31ZM1881.31 241.26H1945.57C1964.69 241.26 1979.34 236.79 1989.53 227.85C1999.71 218.786 2004.8 205.748 2004.8 188.737C2004.8 172.595 1999.71 159.681 1989.53 149.996C1979.34 140.311 1965.37 135.282 1947.62 134.91H1881.31V241.26Z" fill="black"/>
<path d="M2194.01 326.191L2240.95 175.14H2277.82L2196.8 407.769C2184.26 441.295 2164.33 458.057 2137.02 458.057L2130.5 457.499L2117.65 455.077V427.14L2126.96 427.885C2138.63 427.885 2147.7 425.525 2154.15 420.807C2160.73 416.089 2166.13 407.459 2170.36 394.918L2177.99 374.43L2106.1 175.14H2143.72L2194.01 326.191Z" fill="black"/>
</g>
</g>
<g opacity="0.99">
<mask id="mask3_2_2" style="mask-type:luminance" maskUnits="userSpaceOnUse" x="0" y="0" width="3750" height="792">
<g opacity="0.99">
<path d="M0 0H3750V791.667H0V0Z" fill="white"/>
</g>
</mask>
<g mask="url(#mask3_2_2)">
<path d="M348.136 493.868C348.136 506.865 354.297 517.498 366.618 525.768C379.108 534.039 395.311 538.174 415.227 538.174C434.299 538.174 450.334 533.532 463.33 524.249C476.495 514.966 483.078 503.489 483.078 489.818H529.915C529.915 515.979 519.113 536.908 497.509 552.605C476.073 568.133 448.646 575.897 415.227 575.897C380.795 575.897 353.115 568.47 332.186 553.617C311.257 538.596 300.792 518.679 300.792 493.868C300.792 462.475 318.093 441.208 352.693 430.069C337.84 423.992 326.279 415.806 318.008 405.511C309.738 395.215 305.603 383.907 305.603 371.585C305.603 346.606 315.308 327.111 334.718 313.102C354.297 299.093 381.133 292.089 415.227 292.089C446.621 292.089 472.782 299.684 493.711 314.875C514.809 329.896 525.358 349.391 525.358 373.358H478.521C478.521 361.543 472.444 351.416 460.292 342.977C448.308 334.369 433.287 330.065 415.227 330.065C396.323 330.065 381.133 333.947 369.656 341.711C358.347 349.306 352.693 359.349 352.693 371.839C352.693 398.844 373.285 412.346 414.468 412.346H464.09V449.816H407.379C367.884 450.829 348.136 465.513 348.136 493.868Z" fill="black"/>
</g>
</g>
</g>
</g>
</g>
</svg>
