<?xml version="1.0" encoding="UTF-8" standalone="no"?>
<svg
   width="904.61896"
   height="278.66565"
   id="svg2"
   version="1.1"
   inkscape:version="1.4 (86a8ad7, 2024-10-11)"
   sodipodi:docname="logo_exerpy_mid_dark.svg"
   inkscape:export-xdpi="300"
   inkscape:export-ydpi="300"
   xmlns:inkscape="http://www.inkscape.org/namespaces/inkscape"
   xmlns:sodipodi="http://sodipodi.sourceforge.net/DTD/sodipodi-0.dtd"
   xmlns:xlink="http://www.w3.org/1999/xlink"
   xmlns="http://www.w3.org/2000/svg"
   xmlns:svg="http://www.w3.org/2000/svg"
   xmlns:rdf="http://www.w3.org/1999/02/22-rdf-syntax-ns#"
   xmlns:cc="http://creativecommons.org/ns#"
   xmlns:dc="http://purl.org/dc/elements/1.1/">
  <defs
     id="defs4">
    <inkscape:path-effect
       effect="spiro"
       id="path-effect4646"
       is_visible="true"
       lpeversion="0" />
    <inkscape:path-effect
       effect="spiro"
       id="path-effect4642"
       is_visible="true"
       lpeversion="0" />
    <inkscape:path-effect
       effect="spiro"
       id="path-effect4638"
       is_visible="true"
       lpeversion="0" />
    <inkscape:path-effect
       effect="spiro"
       id="path-effect3273"
       is_visible="true"
       lpeversion="0" />
    <inkscape:path-effect
       effect="spiro"
       id="path-effect3265"
       is_visible="true"
       lpeversion="0" />
    <inkscape:path-effect
       effect="spiro"
       id="path-effect3261"
       is_visible="true"
       lpeversion="0" />
    <inkscape:path-effect
       effect="spiro"
       id="path-effect3257"
       is_visible="true"
       lpeversion="0" />
    <linearGradient
       id="linearGradient3960">
      <stop
         id="stop3972"
         offset="0"
         style="stop-color:#55d400;stop-opacity:0.74901961;" />
      <stop
         id="stop3970"
         offset="0.5"
         style="stop-color:#55d400;stop-opacity:0.49803922;" />
      <stop
         style="stop-color:#39d400;stop-opacity:0.24705882;"
         offset="0.75"
         id="stop3976" />
      <stop
         id="stop3980"
         offset="0.875"
         style="stop-color:#94d400;stop-opacity:0.24705882;" />
      <stop
         id="stop3978"
         offset="1"
         style="stop-color:#efd400;stop-opacity:0.24705882;" />
    </linearGradient>
    <marker
       inkscape:stockid="Arrow2Lstart"
       orient="auto"
       refY="0"
       refX="0"
       id="Arrow2Lstart"
       style="overflow:visible">
      <path
         id="path4366"
         style="fill-rule:evenodd;stroke-width:0.625;stroke-linejoin:round"
         d="M 8.7185878,4.0337352 -2.2072895,0.01601326 8.7185884,-4.0017078 c -1.7454984,2.3720609 -1.7354408,5.6174519 -6e-7,8.035443 z"
         transform="matrix(1.1,0,0,1.1,1.1,0)"
         inkscape:connector-curvature="0" />
    </marker>
    <marker
       inkscape:stockid="EmptyDiamondL"
       orient="auto"
       refY="0"
       refX="0"
       id="EmptyDiamondL"
       style="overflow:visible">
      <path
         id="path4454"
         d="M 0,-7.0710768 -7.0710894,0 0,7.0710589 7.0710462,0 Z"
         style="fill:#ffffff;fill-rule:evenodd;stroke:#000000;stroke-width:1pt"
         transform="scale(0.8)"
         inkscape:connector-curvature="0" />
    </marker>
    <marker
       inkscape:stockid="DiamondSstart"
       orient="auto"
       refY="0"
       refX="0"
       id="DiamondSstart"
       style="overflow:visible">
      <path
         id="path4442"
         d="M 0,-7.0710768 -7.0710894,0 0,7.0710589 7.0710462,0 Z"
         style="fill-rule:evenodd;stroke:#000000;stroke-width:1pt"
         transform="matrix(0.2,0,0,0.2,1.2,0)"
         inkscape:connector-curvature="0" />
    </marker>
    <marker
       inkscape:stockid="Arrow1Lstart"
       orient="auto"
       refY="0"
       refX="0"
       id="Arrow1Lstart"
       style="overflow:visible">
      <path
         id="path4348"
         d="M 0,0 5,-5 -12.5,0 5,5 Z"
         style="fill-rule:evenodd;stroke:#000000;stroke-width:1pt"
         transform="matrix(0.8,0,0,0.8,10,0)"
         inkscape:connector-curvature="0" />
    </marker>
    <marker
       inkscape:stockid="SquareL"
       orient="auto"
       refY="0"
       refX="0"
       id="SquareL"
       style="overflow:visible">
      <path
         id="path4418"
         d="M -5,-5 V 5 H 5 V -5 Z"
         style="fill-rule:evenodd;stroke:#000000;stroke-width:1pt"
         transform="scale(0.8)"
         inkscape:connector-curvature="0" />
    </marker>
    <inkscape:perspective
       sodipodi:type="inkscape:persp3d"
       inkscape:vp_x="-105.05586 : -287.16696 : 1"
       inkscape:vp_y="0 : 1000 : 0"
       inkscape:vp_z="1150 : 193.66565 : 1"
       inkscape:persp3d-origin="575 : 126.99898 : 1"
       id="perspective4087" />
    <radialGradient
       r="97.496925"
       fy="188.21428"
       fx="236.78572"
       cy="188.21428"
       cx="236.78572"
       gradientTransform="translate(-139.2888,-90.7174)"
       gradientUnits="userSpaceOnUse"
       id="radialGradient3013"
       xlink:href="#linearGradient3684-76"
       inkscape:collect="always" />
    <radialGradient
       r="97.496925"
       fy="188.21428"
       fx="236.78572"
       cy="188.21428"
       cx="236.78572"
       gradientTransform="translate(-90.4365,1338.3028)"
       gradientUnits="userSpaceOnUse"
       id="radialGradient3004"
       xlink:href="#linearGradient3684-76"
       inkscape:collect="always" />
    <linearGradient
       id="linearGradient3684-76">
      <stop
         offset="0"
         style="stop-color:#000000;stop-opacity:1"
         id="stop3686-14" />
      <stop
         offset="0.89795917"
         style="stop-color:#000000;stop-opacity:0.86666667"
         id="stop3692-23" />
      <stop
         offset="1"
         style="stop-color:#000000;stop-opacity:0"
         id="stop3688-2" />
    </linearGradient>
    <radialGradient
       gradientTransform="translate(-90.4365,1338.3028)"
       gradientUnits="userSpaceOnUse"
       xlink:href="#linearGradient3684-76"
       id="radialGradient4894"
       fy="188.21428"
       fx="236.78572"
       r="97.496925"
       cy="188.21428"
       cx="236.78572" />
    <inkscape:path-effect
       effect="spiro"
       id="path-effect3273-8"
       is_visible="true"
       lpeversion="0" />
    <inkscape:path-effect
       effect="spiro"
       id="path-effect3273-3"
       is_visible="true"
       lpeversion="0" />
    <inkscape:path-effect
       effect="spiro"
       id="path-effect3273-3-6"
       is_visible="true"
       lpeversion="0" />
    <inkscape:path-effect
       effect="spiro"
       id="path-effect3273-3-0"
       is_visible="true"
       lpeversion="0" />
    <inkscape:path-effect
       effect="spiro"
       id="path-effect3273-3-0-5"
       is_visible="true"
       lpeversion="0" />
    <inkscape:path-effect
       effect="spiro"
       id="path-effect3273-3-0-6"
       is_visible="true"
       lpeversion="0" />
    <inkscape:path-effect
       effect="spiro"
       id="path-effect3273-2"
       is_visible="true"
       lpeversion="0" />
    <inkscape:path-effect
       effect="spiro"
       id="path-effect3273-8-0"
       is_visible="true"
       lpeversion="0" />
    <inkscape:path-effect
       effect="spiro"
       id="path-effect3273-3-1"
       is_visible="true"
       lpeversion="0" />
    <inkscape:path-effect
       effect="spiro"
       id="path-effect3273-3-6-7"
       is_visible="true"
       lpeversion="0" />
    <inkscape:path-effect
       effect="spiro"
       id="path-effect3273-3-0-8"
       is_visible="true"
       lpeversion="0" />
    <inkscape:path-effect
       effect="spiro"
       id="path-effect3273-3-0-5-1"
       is_visible="true"
       lpeversion="0" />
    <inkscape:path-effect
       effect="spiro"
       id="path-effect3273-3-0-6-5"
       is_visible="true"
       lpeversion="0" />
    <ellipse
       transform="matrix(-1.655217,1.5156218,-1.8633661,-2.0349941,554.10899,812.95323)"
       id="path3981-2-1-6-7-5-0-3-3-9"
       style="display:inline;fill:none;stroke:none"
       cx="-36.96954"
       cy="-68.571419"
       rx="43.030457"
       ry="35" />
    <inkscape:path-effect
       effect="spiro"
       id="path-effect3273-9"
       is_visible="true"
       lpeversion="0" />
    <inkscape:path-effect
       effect="spiro"
       id="path-effect3273-8-3"
       is_visible="true"
       lpeversion="0" />
    <inkscape:path-effect
       effect="spiro"
       id="path-effect3273-3-2"
       is_visible="true"
       lpeversion="0" />
    <inkscape:path-effect
       effect="spiro"
       id="path-effect3273-3-6-0"
       is_visible="true"
       lpeversion="0" />
    <inkscape:path-effect
       effect="spiro"
       id="path-effect3273-3-0-1"
       is_visible="true"
       lpeversion="0" />
    <inkscape:path-effect
       effect="spiro"
       id="path-effect3273-3-0-5-8"
       is_visible="true"
       lpeversion="0" />
    <inkscape:path-effect
       effect="spiro"
       id="path-effect3273-3-0-6-3"
       is_visible="true"
       lpeversion="0" />
    <mask
       id="mask0_2_2"
       maskUnits="userSpaceOnUse"
       x="0"
       y="0"
       width="848"
       height="792">
      <g
         opacity="0.99"
         id="g1">
        <path
           d="M 0,0 H 847.222 V 791.667 H 0 Z"
           fill="#ffffff"
           id="path1" />
      </g>
    </mask>
    <mask
       id="mask1_2_2"
       maskUnits="userSpaceOnUse"
       x="855"
       y="443"
       width="2895"
       height="348">
      <g
         opacity="0.99"
         id="g4">
        <path
           d="M 855.956,443.352 H 3750 V 790.574 H 855.956 Z"
           fill="#ffffff"
           id="path3" />
      </g>
    </mask>
    <mask
       id="mask2_2_2"
       maskUnits="userSpaceOnUse"
       x="0"
       y="0"
       width="3750"
       height="792">
      <g
         opacity="0.99"
         id="g32">
        <path
           d="M 0,0 H 3750 V 791.667 H 0 Z"
           fill="#ffffff"
           id="path32" />
      </g>
    </mask>
    <mask
       id="mask3_2_2"
       maskUnits="userSpaceOnUse"
       x="0"
       y="0"
       width="3750"
       height="792">
      <g
         opacity="0.99"
         id="g51">
        <path
           d="M 0,0 H 3750 V 791.667 H 0 Z"
           fill="#ffffff"
           id="path50" />
      </g>
    </mask>
  </defs>
  <sodipodi:namedview
     id="base"
     pagecolor="#ffffff"
     bordercolor="#666666"
     borderopacity="1.0"
     inkscape:pageopacity="0.0"
     inkscape:pageshadow="2"
     inkscape:zoom="1.4429491"
     inkscape:cx="630.30638"
     inkscape:cy="250.52859"
     inkscape:document-units="px"
     inkscape:current-layer="layer1"
     showgrid="false"
     inkscape:window-width="4300"
     inkscape:window-height="1711"
     inkscape:window-x="2391"
     inkscape:window-y="-9"
     inkscape:window-maximized="1"
     showguides="true"
     inkscape:guide-bbox="true"
     width="1150px"
     inkscape:snap-center="true"
     inkscape:document-rotation="0"
     inkscape:object-paths="true"
     inkscape:snap-intersection-paths="true"
     inkscape:snap-bbox="true"
     inkscape:snap-object-midpoints="true"
     inkscape:snap-bbox-midpoints="true"
     inkscape:bbox-nodes="true"
     inkscape:bbox-paths="true"
     inkscape:snap-bbox-edge-midpoints="true"
     inkscape:snap-smooth-nodes="true"
     inkscape:showpageshadow="2"
     inkscape:pagecheckerboard="0"
     inkscape:deskcolor="#d1d1d1">
    <sodipodi:guide
       orientation="1,0"
       position="-1.5835887,570.09189"
       id="guide3070"
       inkscape:locked="false" />
    <sodipodi:guide
       orientation="0,1"
       position="399.06434,6.3343398"
       id="guide3098"
       inkscape:locked="false" />
    <sodipodi:guide
       orientation="1,0"
       position="327.80285,549.50524"
       id="guide3121"
       inkscape:locked="false" />
    <sodipodi:guide
       orientation="1,0"
       position="1333.3816,674.60874"
       id="guide3065"
       inkscape:locked="false" />
    <sodipodi:guide
       orientation="1,0"
       position="812.38098,568.50831"
       id="guide3067"
       inkscape:locked="false" />
    <sodipodi:guide
       orientation="0,1"
       position="1059.4208,234.3711"
       id="guide3069"
       inkscape:locked="false" />
    <sodipodi:guide
       orientation="1,0"
       position="536.83655,723.69999"
       id="guide3073"
       inkscape:locked="false" />
    <sodipodi:guide
       orientation="1,0"
       position="848.80352,612.84879"
       id="guide3075"
       inkscape:locked="false" />
    <inkscape:grid
       type="xygrid"
       id="grid936"
       originx="0"
       originy="1.4765626e-05"
       spacingy="1"
       spacingx="1"
       units="px" />
  </sodipodi:namedview>
  <metadata
     id="metadata7">
    <rdf:RDF>
      <cc:Work
         rdf:about="">
        <dc:format>image/svg+xml</dc:format>
        <dc:type
           rdf:resource="http://purl.org/dc/dcmitype/StillImage" />
      </cc:Work>
    </rdf:RDF>
  </metadata>
  <g
     inkscape:label="Ebene 1"
     inkscape:groupmode="layer"
     id="layer1"
     transform="translate(0,-767.36218)"
     style="display:inline">
    <text
       xml:space="preserve"
       style="font-style:normal;font-weight:normal;line-height:0%;font-family:sans-serif;letter-spacing:0px;word-spacing:0px;fill:#000000;fill-opacity:1;stroke:none"
       x="611.42859"
       y="805.24567"
       id="text3057"><tspan
         sodipodi:role="line"
         id="tspan3059"
         x="611.42859"
         y="805.24567"
         style="font-size:64px;line-height:1.25;font-family:sans-serif"> </tspan></text>
    <g
       transform="matrix(0.91666939,0.00891669,-0.008729,0.91623053,14.672869,82.666835)"
       id="g3831-9-3-1-6-3"
       style="display:inline;fill:none;stroke:#cfcfcf;stroke-width:1.46722;stroke-linecap:round;stroke-miterlimit:4;stroke-dasharray:none;stroke-opacity:1" />
    <path
       style="font-size:135px;line-height:1.25;font-family:FreeSans;-inkscape-font-specification:FreeSans;letter-spacing:0px;word-spacing:0px;fill:#b3b3b3"
       d="m 332.95007,906.85117 v 9.72 h -13.905 v 107.59503 h 13.905 v 9.72 h -25.11 V 906.85117 Z m 10.25999,2.7 h 12.69 v 14.985 l -3.645,18.09 h -5.4 l -3.645,-18.09 z m 69.38999,74.655 h 11.88 q -0.81,24.16503 -28.215,24.16503 -13.365,0 -21.33,-6.075 -7.83,-6.07503 -7.83,-16.33503 0,-11.61 11.61,-16.74 -8.775,-4.995 -8.775,-15.12 0,-9.855 7.425,-15.66 7.425,-5.94 19.71,-5.94 12.285,0 18.9,5.67 6.615,5.67 6.75,16.065 h -11.88 q -0.405,-11.34 -14.175,-11.34 -6.885,0 -10.935,2.97 -4.05,2.835 -4.05,7.695 0,4.455 3.24,8.1 3.375,3.51 9.855,3.51 h 8.37 v 10.26 h -9.99 q -5.805,0 -9.855,3.645 -3.915,3.645 -3.915,7.83 0,4.995 4.32,8.1 4.32,2.97 11.61,2.97 9.315,0 12.825,-3.645 3.51,-3.78 4.455,-10.125 z m 36.45001,-77.355 v 57.645 l 29.97,-29.97 h 14.445 l -24.57,24.435 28.89,46.30503 h -13.905 l -23.895,-38.34003 -10.935,10.8 v 27.54003 h -11.205 v -98.41503 z m 63.58496,77.355 q 0.81,6.345 4.32,10.125 3.645,3.645 12.96,3.645 7.425,0 11.88,-2.97 4.59,-3.105 4.59,-8.1 0,-3.915 -2.565,-6.21 -2.565,-2.295 -8.37,-3.645 l -10.53,-2.565 q -12.555,-2.97 -17.55,-7.425 -4.86,-4.59 -4.86,-12.96 0,-9.855 7.425,-15.66 7.425,-5.94 19.71,-5.94 12.285,0 18.9,5.67 6.615,5.67 6.75,16.065 h -11.88 q -0.405,-11.34 -14.175,-11.34 -6.885,0 -10.935,2.97 -4.05,2.835 -4.05,7.695 0,3.78 3.105,6.21 3.105,2.295 9.99,3.915 l 10.8,2.565 q 10.53,2.565 15.255,7.29 4.725,4.59 4.725,12.42 0,10.26 -7.965,16.33503 -7.83,6.075 -21.195,6.075 -27.405,0 -28.215,-24.16503 z m 56.43002,-17.01 h 52.11 q -0.135,-9.72 -3.78,-15.12 -5.805,-9.18 -17.01,-9.18 -13.77,0 -18.495,14.175 h -11.34 q 2.16,-11.61 10.125,-18.09 7.965,-6.48 20.115,-6.48 14.85,0 23.49,10.125 8.64,9.99 8.64,27.405 0,17.415 -8.91,27.945 -8.775,10.39503 -23.49,10.39503 -9.99,0 -17.685,-4.995 -7.56,-4.99503 -10.935,-13.63503 -2.835,-7.425 -2.835,-22.545 z m 51.84,9.18 h -39.69 q -0.135,0.27 -0.135,0.81 0,8.775 5.67,14.85 5.67,5.94 13.905,5.94 8.505,0 14.04,-5.805 5.535,-5.94 6.21,-15.795 z m 43.60497,14.85 v 14.04003 h -14.04 v -14.04003 z m 19.03496,43.47003 V 934.52617 h 10.395 v 10.665 q 7.965,-12.69 22.545,-12.69 14.04,0 22.14,10.395 8.235,10.395 8.235,28.215 0,16.875 -8.37,27.135 -8.235,10.12503 -21.87,10.12503 -13.095,0 -21.735,-10.53003 v 36.85503 z m 31.05,-91.66503 q -8.91,0 -14.31,7.56 -5.4,7.425 -5.4,19.845 0,12.42 5.4,19.98 5.4,7.425 14.31,7.425 9.18,0 14.85,-7.425 5.67,-7.56 5.67,-19.575 0,-12.69 -5.67,-20.25 -5.535,-7.56 -14.85,-7.56 z m 45.49497,12.42 q 0.81,-22.95 28.35,-22.95 13.095,0 19.845,4.995 6.75,4.86 6.75,14.31 v 41.58 q 0,5.535 6.075,5.535 1.215,0 2.43,-0.27 v 8.50503 q -4.725,1.215 -7.695,1.215 -5.4,0 -8.235,-2.565 -2.7,-2.43 -3.375,-7.83003 -11.34,10.39503 -24.03,10.39503 -10.665,0 -17.01,-5.67 -6.21,-5.67003 -6.21,-15.25503 0,-3.105 0.54,-5.67 0.675,-2.565 1.35,-4.455 0.81,-2.025 2.7,-3.645 1.89,-1.755 3.105,-2.835 1.35,-1.08 4.32,-2.025 3.105,-1.08 4.725,-1.485 1.62,-0.54 5.67,-1.215 4.05,-0.675 5.94,-0.945 1.89,-0.27 6.75,-0.945 6.615,-0.81 9.18,-2.565 2.565,-1.755 2.565,-5.265 v -2.97 q 0,-5.13 -4.185,-7.83 -4.05,-2.7 -11.61,-2.7 -7.83,0 -11.88,3.105 -4.05,2.97 -4.725,9.45 z m 22.545,43.065 q 9.315,0 15.255,-4.86 5.94,-4.995 5.94,-10.665 v -12.69 q -3.375,1.62 -10.26,2.7 -6.75,1.08 -11.745,1.89 -4.995,0.81 -9.045,3.915 -4.05,2.97 -4.05,8.37 0,5.4 3.645,8.37 3.645,2.97 10.26,2.97 z m 46.44,-63.99 h 32.13 v 9.72 h -9.855 v 51.3 h 9.855 v 9.72003 h -32.13 v -9.72003 h 11.07 v -51.3 h -11.07 z m 37.79997,99.36003 v -9.72 h 13.905 V 916.57117 h -13.905 v -9.72 h 25.11 v 127.03503 z"
       id="text2997-0"
       aria-label="['ɛksə.paɪ]" />
    <path
       style="font-size:192.55px;line-height:1.25;font-family:FreeSans;-inkscape-font-specification:FreeSans;letter-spacing:0px;word-spacing:0px;stroke-width:1.42629;fill:#ffffff;fill-opacity:1"
       d="m 170.59808,935.36076 h 16.9444 q -1.1553,34.46645 -40.24295,34.46645 -19.06245,0 -30.4229,-8.66475 -11.1679,-8.66475 -11.1679,-23.29855 0,-16.5593 16.5593,-23.8762 -12.51575,-7.12435 -12.51575,-21.5656 0,-14.05615 10.59025,-22.3358 10.59025,-8.4722 28.1123,-8.4722 17.52205,0 26.957,8.0871 9.43495,8.0871 9.6275,22.91345 h -16.9444 q -0.57765,-16.1742 -20.21775,-16.1742 -9.82005,0 -15.59655,4.2361 -5.7765,4.04355 -5.7765,10.97535 0,6.35415 4.6212,11.553 4.81375,5.0063 14.05615,5.0063 h 11.9381 v 14.6338 h -14.2487 q -8.27965,0 -14.05615,5.19885 -5.58395,5.19885 -5.58395,11.1679 0,7.12435 6.1616,11.553 6.1616,4.2361 16.5593,4.2361 13.28595,0 18.29225,-5.19885 5.0063,-5.3914 6.35415,-14.44125 z"
       id="text2997-0-2"
       aria-label="ɛ" />
    <g
       style="display:inline"
       id="g3465-3-7"
       transform="matrix(1.14,0,0,1.14,-33.075602,-142.75647)">
      <path
         id="path3981-2-1-6-7-5-0-4-4-8-3-3"
         style="display:inline;opacity:1;vector-effect:none;fill:none;stroke:#1f567d;stroke-width:48.2456"
         transform="rotate(90.00083)"
         d="m 1015.2362,-107.51498 a 100.26201,100.26201 0 0 1 -112.77912,46.714663 100.26201,100.26201 0 0 1 -74.31229,-96.845663 100.26201,100.26201 0 0 1 74.31229,-96.84566 100.26201,100.26201 0 0 1 112.77912,46.71465" />
    </g>
    <path
       style="font-size:135px;line-height:0%;font-family:FreeSans;-inkscape-font-specification:FreeSans;letter-spacing:20px;word-spacing:0px;fill:#ffffff;fill-opacity:1"
       d="m 371.69506,845.83133 h -52.11 q 0.135,9.72 3.78,15.12 5.805,9.18 17.01,9.18 13.77,0 18.495,-14.175 h 11.34 q -2.16,11.61 -10.125,18.09 -7.965,6.48 -20.115,6.48 -14.85,0 -23.49,-9.99 -8.64,-10.125 -8.64,-27.54 0,-17.415 8.775,-27.81 8.91,-10.53 23.625,-10.53 9.99,0 17.55,4.995 7.695,4.995 11.07,13.635 2.835,7.425 2.835,22.545 z m -51.84,-9.18 h 39.69 q 0.135,-0.27 0.135,-0.81 0,-8.775 -5.67,-14.715 -5.67,-6.075 -13.905,-6.075 -8.505,0 -14.04,5.94 -5.535,5.805 -6.21,15.66 z m 114.36491,4.185 24.435,36.585 h -13.095 l -17.685,-27.135 -17.955,27.135 h -12.825 l 24.975,-36.045 -23.625,-34.695 h 12.825 l 17.01,25.65 17.01,-25.65 h 12.69 z m 114.63494,4.995 h -52.11 q 0.135,9.72 3.78,15.12 5.805,9.18 17.01,9.18 13.77,0 18.495,-14.175 h 11.34 q -2.16,11.61 -10.125,18.09 -7.965,6.48 -20.115,6.48 -14.85,0 -23.49,-9.99 -8.64,-10.125 -8.64,-27.54 0,-17.415 8.775,-27.81 8.91,-10.53 23.625,-10.53 9.99,0 17.55,4.995 7.695,4.995 11.07,13.635 2.835,7.425 2.835,22.545 z m -51.84,-9.18 h 39.69 q 0.135,-0.27 0.135,-0.81 0,-8.775 -5.67,-14.715 -5.67,-6.075 -13.905,-6.075 -8.505,0 -14.04,5.94 -5.535,5.805 -6.21,15.66 z m 119.62993,-20.115 q -11.34,0.27 -17.01,5.265 -5.67,4.995 -5.67,18.9 v 36.72 h -11.34 v -70.74 h 10.395 v 12.825 q 4.86,-7.965 9.315,-11.34 4.59,-3.51 9.99,-3.51 1.485,0 4.32,0.405 z m 28.91005,90.315 v -100.17 h 10.395 v 10.665 q 7.965,-12.69 22.545,-12.69 14.04,0 22.14,10.395 8.235,10.395 8.235,28.215 0,16.875 -8.37,27.135 -8.235,10.125 -21.87,10.125 -13.095,0 -21.735,-10.53 v 36.855 z m 31.05,-91.665 q -8.91,0 -14.31,7.56 -5.4,7.425 -5.4,19.845 0,12.42 5.4,19.98 5.4,7.425 14.31,7.425 9.18,0 14.85,-7.425 5.67,-7.56 5.67,-19.575 0,-12.69 -5.67,-20.25 -5.535,-7.56 -14.85,-7.56 z m 107.74993,-8.505 h 12.15 l -31.455,85.59 q -5.535,14.58 -18.225,14.58 -4.185,0 -7.56,-1.755 v -10.125 q 3.645,0.81 5.94,0.81 3.51,0 5.535,-1.62 2.025,-1.485 3.51,-5.265 l 4.32,-11.205 -23.895,-71.01 h 12.015 l 18.09,55.08 z"
       id="text2987-2-0"
       aria-label="exerpy" />
  </g>
</svg>
