<svg width="2354" height="792" viewBox="0 0 2354 792" fill="none" xmlns="http://www.w3.org/2000/svg">
<g opacity="0.99" clip-path="url(#clip0_2_214)">
<g opacity="0.99">
<mask id="mask0_2_214" style="mask-type:luminance" maskUnits="userSpaceOnUse" x="0" y="0" width="848" height="792">
<g opacity="0.99">
<path d="M0 0H847.222V791.667H0V0Z" fill="white"/>
</g>
</mask>
<g mask="url(#mask0_2_214)">
<path d="M248.541 706.58C241.038 702.249 233.725 697.618 226.602 692.687C219.479 687.757 212.569 682.544 205.872 677.048C199.175 671.552 192.714 665.791 186.489 659.767C180.264 653.742 174.295 647.472 168.584 640.959C162.872 634.446 157.435 627.71 152.275 620.751C147.114 613.793 142.247 606.635 137.672 599.278C133.097 591.922 128.831 584.39 124.873 576.684C120.915 568.978 117.278 561.123 113.963 553.119C110.648 545.115 107.665 536.989 105.015 528.741C102.365 520.493 100.057 512.151 98.0895 503.714C96.1225 495.277 94.5034 486.774 93.2324 478.204C91.9614 469.635 91.0426 461.028 90.4761 452.383C89.9096 443.739 89.6973 435.085 89.8392 426.423C89.9811 417.761 90.4766 409.12 91.3259 400.498C92.1752 391.877 93.3753 383.304 94.9263 374.781C96.4773 366.258 98.3739 357.812 100.616 349.444C102.859 341.076 105.439 332.814 108.358 324.657C111.276 316.5 114.523 308.476 118.099 300.585C121.674 292.694 125.566 284.963 129.775 277.391C133.983 269.818 138.494 262.43 143.307 255.227C148.12 248.024 153.219 241.03 158.605 234.244C163.991 227.459 169.645 220.904 175.567 214.581C181.489 208.258 187.66 202.188 194.079 196.37C200.498 190.553 207.144 185.007 214.017 179.733C220.89 174.46 227.967 169.475 235.248 164.781C242.529 160.087 249.99 155.698 257.63 151.614C265.271 147.53 273.065 143.765 281.013 140.32C288.962 136.874 297.038 133.759 305.241 130.974C313.445 128.19 321.748 125.745 330.152 123.64C338.556 121.535 347.031 119.777 355.579 118.366C364.126 116.955 372.717 115.896 381.351 115.188C389.986 114.48 398.634 114.126 407.298 114.126C415.961 114.126 424.61 114.481 433.244 115.189C441.878 115.897 450.469 116.956 459.016 118.368C467.564 119.779 476.039 121.537 484.443 123.642C492.846 125.748 501.15 128.192 509.353 130.977C517.557 133.762 525.633 136.877 533.581 140.323C541.529 143.769 549.324 147.534 556.964 151.618C564.604 155.702 572.065 160.091 579.345 164.786C586.626 169.481 593.703 174.465 600.576 179.738C607.449 185.013 614.095 190.559 620.514 196.376C626.933 202.194 633.103 208.265 639.025 214.588C644.947 220.911 650.601 227.465 655.987 234.251C661.372 241.037 666.471 248.032 671.284 255.235C676.097 262.438 680.608 269.826 684.816 277.399C689.024 284.971 692.916 292.703 696.491 300.594C700.066 308.485 703.313 316.509 706.231 324.666C709.15 332.823 711.73 341.085 713.972 349.453C716.214 357.821 718.111 366.267 719.661 374.79C721.212 383.314 722.412 391.886 723.261 400.507C724.11 409.129 724.605 417.771 724.747 426.433C724.889 435.095 724.676 443.748 724.109 452.392C723.542 461.037 722.623 469.644 721.352 478.214C720.081 486.783 718.462 495.286 716.494 503.723C714.527 512.16 712.218 520.502 709.568 528.75C706.918 536.998 703.935 545.124 700.62 553.127C697.304 561.131 693.667 568.986 689.709 576.692C685.751 584.398 681.484 591.929 676.909 599.286C672.334 606.643 667.466 613.8 662.306 620.759C657.145 627.717 651.708 634.452 645.996 640.965C640.284 647.479 634.315 653.748 628.09 659.773C621.865 665.798 615.404 671.557 608.707 677.053C602.01 682.549 595.1 687.762 587.976 692.692C580.853 697.623 573.54 702.253 566.037 706.585" stroke="#1F567D" stroke-width="152.779"/>
</g>
</g>
<path d="M348.136 493.868C348.136 506.865 354.297 517.498 366.618 525.768C379.108 534.039 395.311 538.174 415.227 538.174C434.299 538.174 450.334 533.532 463.33 524.249C476.495 514.966 483.078 503.489 483.078 489.818H529.915C529.915 515.979 519.113 536.908 497.509 552.605C476.073 568.133 448.646 575.897 415.227 575.897C380.795 575.897 353.115 568.47 332.186 553.617C311.257 538.596 300.792 518.679 300.792 493.868C300.792 462.475 318.093 441.208 352.693 430.069C337.84 423.992 326.279 415.806 318.008 405.511C309.738 395.215 305.603 383.907 305.603 371.585C305.603 346.606 315.308 327.111 334.718 313.102C354.297 299.093 381.133 292.089 415.227 292.089C446.621 292.089 472.782 299.684 493.711 314.875C514.809 329.896 525.358 349.391 525.358 373.358H478.521C478.521 361.543 472.444 351.416 460.292 342.977C448.308 334.369 433.287 330.065 415.227 330.065C396.323 330.065 381.133 333.947 369.656 341.711C358.347 349.306 352.693 359.349 352.693 371.839C352.693 398.844 373.285 412.346 414.468 412.346H464.09V449.816H407.379C367.884 450.829 348.136 465.513 348.136 493.868Z" fill="black"/>
<g opacity="0.99">
<mask id="mask1_2_214" style="mask-type:luminance" maskUnits="userSpaceOnUse" x="0" y="0" width="3750" height="792">
<g opacity="0.99">
<path d="M0 0H3750V791.667H0V0Z" fill="white"/>
</g>
</mask>
<g mask="url(#mask1_2_214)">
<path d="M991 485.187H960.6V751.245H991V775.432H931V461H991V485.187Z" fill="#B3B3B3"/>
<path d="M1033.28 478.109V531.555H1007.21V478.109H1033.28Z" fill="#B3B3B3"/>
<path d="M1091.82 677.411C1091.82 685.579 1095.69 692.262 1103.44 697.46C1111.29 702.658 1121.47 705.258 1133.99 705.258C1145.98 705.258 1156.05 702.34 1164.22 696.506C1172.5 690.671 1176.63 683.457 1176.63 674.865H1206.07C1206.07 691.308 1199.28 704.462 1185.7 714.328C1172.23 724.087 1154.99 728.967 1133.99 728.967C1112.35 728.967 1094.95 724.3 1081.8 714.964C1068.64 705.523 1062.06 693.005 1062.06 677.411C1062.06 657.679 1072.94 644.313 1094.69 637.311C1085.35 633.492 1078.08 628.347 1072.88 621.876C1067.69 615.405 1065.09 608.297 1065.09 600.553C1065.09 584.853 1071.19 572.6 1083.39 563.795C1095.69 554.99 1112.56 550.588 1133.99 550.588C1153.72 550.588 1170.16 555.361 1183.32 564.909C1196.58 574.35 1203.21 586.603 1203.21 601.667H1173.77C1173.77 594.241 1169.95 587.876 1162.31 582.572C1154.78 577.162 1145.34 574.456 1133.99 574.456C1122.11 574.456 1112.56 576.896 1105.35 581.776C1098.24 586.55 1094.69 592.862 1094.69 600.712C1094.69 617.686 1107.63 626.172 1133.51 626.172H1164.7V649.723H1129.06C1104.23 650.359 1091.82 659.589 1091.82 677.411Z" fill="#B3B3B3"/>
<path d="M1292.31 646.063L1273.85 665.317V725.785H1244.41V481.368H1273.85V629.195L1289.6 610.26L1343.23 553.611H1379.03L1312.04 625.536L1386.83 725.785H1352.3L1292.31 646.063Z" fill="#B3B3B3"/>
<path d="M1509.66 680.116C1509.66 672.159 1506.64 666.007 1500.59 661.657C1494.65 657.202 1484.2 653.383 1469.24 650.2C1454.39 647.018 1442.56 643.199 1433.76 638.743C1425.06 634.288 1418.59 628.983 1414.35 622.831C1410.21 616.678 1408.14 609.358 1408.14 600.871C1408.14 586.762 1414.08 574.828 1425.96 565.068C1437.95 555.308 1453.23 550.429 1471.79 550.429C1491.31 550.429 1507.12 555.467 1519.21 565.545C1531.41 575.623 1537.51 588.513 1537.51 604.213H1507.91C1507.91 596.151 1504.46 589.202 1497.57 583.367C1490.78 577.533 1482.19 574.616 1471.79 574.616C1461.08 574.616 1452.7 576.949 1446.65 581.617C1440.6 586.285 1437.58 592.385 1437.58 599.917C1437.58 607.024 1440.39 612.381 1446.01 615.988C1451.63 619.595 1461.77 623.043 1476.41 626.331C1491.15 629.62 1503.09 633.545 1512.21 638.107C1521.33 642.668 1528.07 648.185 1532.42 654.656C1536.87 661.021 1539.1 668.818 1539.1 678.047C1539.1 693.429 1532.95 705.788 1520.64 715.123C1508.34 724.353 1492.37 728.967 1472.75 728.967C1458.95 728.967 1446.75 726.527 1436.15 721.647C1425.54 716.768 1417.21 709.978 1411.16 701.279C1405.22 692.474 1402.25 682.98 1402.25 672.796H1431.69C1432.22 682.662 1436.15 690.512 1443.47 696.347C1450.89 702.075 1460.65 704.939 1472.75 704.939C1483.88 704.939 1492.8 702.712 1499.48 698.256C1506.27 693.694 1509.66 687.648 1509.66 680.116Z" fill="#B3B3B3"/>
<path d="M1636.47 550.269C1659.81 550.269 1678.64 558.226 1692.96 574.138C1707.29 590.051 1714.45 611.214 1714.45 637.629V643.358C1714.45 659.164 1711.16 673.645 1704.58 686.799C1698 699.953 1688.99 710.296 1677.53 717.828C1666.07 725.254 1653.87 728.914 1640.93 728.808C1618.86 728.808 1601.63 722.072 1589.21 708.599C1576.91 695.126 1570.76 676.031 1570.76 651.314V632.855H1684.85C1684.11 615.033 1679.44 600.818 1670.85 590.21C1662.36 579.601 1650.9 574.297 1636.47 574.297C1616.74 574.297 1600.35 580.026 1587.3 591.483L1575.69 571.592C1590.54 557.377 1610.8 550.269 1636.47 550.269ZM1640.93 704.78C1651.33 704.78 1660.5 700.431 1668.46 691.732C1676.52 683.033 1681.67 671.417 1683.89 656.883H1600.35V661.021C1600.35 674.281 1603.96 684.889 1611.17 692.846C1618.49 700.802 1628.41 704.78 1640.93 704.78Z" fill="#B3B3B3"/>
<path d="M1749.76 710.35C1749.76 705.258 1751.25 701.014 1754.22 697.62C1757.29 694.225 1761.85 692.528 1767.9 692.528C1773.95 692.528 1778.51 694.225 1781.59 697.62C1784.77 701.014 1786.36 705.258 1786.36 710.35C1786.36 715.229 1784.77 719.314 1781.59 722.602C1778.51 725.891 1773.95 727.535 1767.9 727.535C1761.85 727.535 1757.29 725.891 1754.22 722.602C1751.25 719.314 1749.76 715.229 1749.76 710.35Z" fill="#B3B3B3"/>
<path d="M1980.33 641.607C1980.33 667.81 1974.33 688.921 1962.35 704.939C1950.36 720.958 1934.13 728.967 1913.65 728.967C1892.76 728.967 1876.31 722.337 1864.33 709.077V791.981H1834.89V553.611H1861.78L1863.21 572.706C1875.2 557.854 1891.85 550.429 1913.18 550.429C1933.86 550.429 1950.2 558.226 1962.19 573.82C1974.28 589.414 1980.33 611.108 1980.33 638.902V641.607ZM1950.89 638.266C1950.89 618.852 1946.75 603.523 1938.48 592.278C1930.2 581.034 1918.85 575.411 1904.43 575.411C1886.6 575.411 1873.24 583.314 1864.33 599.121V681.389C1873.13 697.089 1886.6 704.939 1904.74 704.939C1918.85 704.939 1930.04 699.37 1938.32 688.231C1946.7 676.986 1950.89 660.331 1950.89 638.266Z" fill="#B3B3B3"/>
<path d="M2124.01 725.785C2122.31 722.39 2120.93 716.343 2119.87 707.644C2106.18 721.86 2089.85 728.967 2070.86 728.967C2053.89 728.967 2039.94 724.193 2029.01 714.646C2018.19 704.992 2012.78 692.793 2012.78 678.047C2012.78 660.119 2019.57 646.222 2033.15 636.356C2046.83 626.384 2066.03 621.398 2090.75 621.398H2119.39V607.873C2119.39 597.583 2116.32 589.414 2110.16 583.367C2104.01 577.215 2094.94 574.138 2082.95 574.138C2072.45 574.138 2063.65 576.79 2056.54 582.094C2049.43 587.399 2045.88 593.817 2045.88 601.349H2016.28C2016.28 592.756 2019.3 584.481 2025.35 576.525C2031.5 568.463 2039.78 562.098 2050.17 557.43C2060.67 552.762 2072.19 550.429 2084.7 550.429C2104.54 550.429 2120.08 555.414 2131.33 565.386C2142.57 575.252 2148.41 588.884 2148.83 606.282V685.526C2148.83 701.332 2150.85 713.903 2154.88 723.239V725.785H2124.01ZM2075.16 703.348C2084.38 703.348 2093.14 700.961 2101.41 696.187C2109.69 691.414 2115.68 685.208 2119.39 677.57V642.244H2096.32C2060.25 642.244 2042.22 652.799 2042.22 673.91C2042.22 683.139 2045.29 690.353 2051.45 695.551C2057.6 700.749 2065.5 703.348 2075.16 703.348Z" fill="#B3B3B3"/>
<path d="M2265.24 551.108V568.054L2239.17 573.92V703.298L2265.24 708.838V725.785H2184.42V708.838L2210.49 703.298V573.92L2184.42 568.054V551.108H2265.24Z" fill="#B3B3B3"/>
<path d="M2278.4 461H2338.55V775.432H2278.4V751.245H2309.11V485.187H2278.4V461Z" fill="#B3B3B3"/>
</g>
</g>
<path d="M1111.67 340.336V371H961.086V340.336H1111.67ZM968.703 86.625V371H931.008V86.625H968.703ZM1091.75 208.891V239.555H961.086V208.891H1091.75ZM1109.72 86.625V117.484H961.086V86.625H1109.72ZM1225.3 159.672L1271.59 236.625L1318.46 159.672H1360.84L1291.7 263.969L1362.99 371H1321.2L1272.37 291.703L1223.54 371H1181.55L1252.64 263.969L1183.7 159.672H1225.3ZM1531.11 374.906C1516.4 374.906 1503.05 372.432 1491.07 367.484C1479.22 362.406 1469 355.31 1460.41 346.195C1451.94 337.081 1445.43 326.273 1440.88 313.773C1436.32 301.273 1434.04 287.602 1434.04 272.758V264.555C1434.04 247.367 1436.58 232.068 1441.66 218.656C1446.73 205.115 1453.64 193.656 1462.36 184.281C1471.08 174.906 1480.98 167.81 1492.05 162.992C1503.11 158.174 1514.57 155.766 1526.42 155.766C1541.53 155.766 1554.55 158.37 1565.48 163.578C1576.55 168.786 1585.6 176.078 1592.63 185.453C1599.66 194.698 1604.87 205.635 1608.26 218.266C1611.64 230.766 1613.34 244.438 1613.34 259.281V275.492H1455.52V246H1577.2V243.266C1576.68 233.891 1574.73 224.776 1571.34 215.922C1568.09 207.068 1562.88 199.776 1555.72 194.047C1548.56 188.318 1538.79 185.453 1526.42 185.453C1518.22 185.453 1510.67 187.211 1503.77 190.727C1496.86 194.112 1490.94 199.19 1485.99 205.961C1481.04 212.732 1477.2 221 1474.47 230.766C1471.73 240.531 1470.37 251.794 1470.37 264.555V272.758C1470.37 282.784 1471.73 292.224 1474.47 301.078C1477.33 309.802 1481.43 317.484 1486.77 324.125C1492.24 330.766 1498.82 335.974 1506.5 339.75C1514.31 343.526 1523.17 345.414 1533.06 345.414C1545.82 345.414 1556.63 342.81 1565.48 337.602C1574.34 332.393 1582.09 325.427 1588.73 316.703L1610.6 334.086C1606.04 340.987 1600.25 347.562 1593.22 353.812C1586.19 360.062 1577.53 365.141 1567.24 369.047C1557.09 372.953 1545.04 374.906 1531.11 374.906ZM1739.66 192.875V371H1703.52V159.672H1738.68L1739.66 192.875ZM1805.67 158.5L1805.48 192.094C1802.48 191.443 1799.62 191.052 1796.88 190.922C1794.28 190.661 1791.28 190.531 1787.9 190.531C1779.57 190.531 1772.21 191.833 1765.83 194.438C1759.45 197.042 1754.04 200.688 1749.62 205.375C1745.19 210.062 1741.67 215.661 1739.07 222.172C1736.6 228.552 1734.97 235.583 1734.19 243.266L1724.03 249.125C1724.03 236.365 1725.27 224.385 1727.74 213.188C1730.35 201.99 1734.32 192.094 1739.66 183.5C1744.99 174.776 1751.77 168.005 1759.97 163.188C1768.3 158.24 1778.2 155.766 1789.66 155.766C1792.26 155.766 1795.26 156.091 1798.64 156.742C1802.03 157.263 1804.37 157.849 1805.67 158.5ZM1997.42 259.477H1921.45V228.812H1997.42C2012.14 228.812 2024.05 226.469 2033.16 221.781C2042.28 217.094 2048.92 210.583 2053.09 202.25C2057.38 193.917 2059.53 184.411 2059.53 173.734C2059.53 163.969 2057.38 154.789 2053.09 146.195C2048.92 137.602 2042.28 130.701 2033.16 125.492C2024.05 120.154 2012.14 117.484 1997.42 117.484H1930.23V371H1892.54V86.625H1997.42C2018.91 86.625 2037.07 90.3359 2051.91 97.7578C2066.76 105.18 2078.02 115.466 2085.7 128.617C2093.39 141.638 2097.23 156.547 2097.23 173.344C2097.23 191.573 2093.39 207.133 2085.7 220.023C2078.02 232.914 2066.76 242.745 2051.91 249.516C2037.07 256.156 2018.91 259.477 1997.42 259.477ZM2249.91 349.125L2308.7 159.672H2347.38L2262.61 403.617C2260.66 408.826 2258.05 414.424 2254.8 420.414C2251.67 426.534 2247.64 432.328 2242.69 437.797C2237.74 443.266 2231.75 447.693 2224.72 451.078C2217.82 454.594 2209.55 456.352 2199.91 456.352C2197.05 456.352 2193.4 455.961 2188.98 455.18C2184.55 454.398 2181.42 453.747 2179.6 453.227L2179.41 423.93C2180.45 424.06 2182.08 424.19 2184.29 424.32C2186.63 424.581 2188.26 424.711 2189.17 424.711C2197.38 424.711 2204.34 423.604 2210.07 421.391C2215.8 419.307 2220.62 415.727 2224.52 410.648C2228.56 405.701 2232.01 398.865 2234.88 390.141L2249.91 349.125ZM2206.75 159.672L2261.63 323.734L2271.01 361.82L2245.03 375.102L2167.3 159.672H2206.75Z" fill="black"/>
</g>
<defs>
<clipPath id="clip0_2_214">
<rect width="2354" height="792" fill="white"/>
</clipPath>
</defs>
</svg>
